<svg width="87px" height="91px" viewBox="0 0 87 91" version="1.1" xmlns="http://www.w3.org/2000/svg" xmlns:xlink="http://www.w3.org/1999/xlink">
    <!-- Generator: Sketch 41.2 (35397) - http://www.bohemiancoding.com/sketch -->
    <title>Horizontal Scroll</title>
    <desc>Created with Sketch.</desc>
    <defs></defs>
    <g id="Page-1" stroke="none" stroke-width="1" fill="none" fill-rule="evenodd">
        <g id="Horizontal-Scroll" transform="translate(2.000000, 0.000000)" stroke-width="3">
            <g id="Group" stroke="#EC6864">
                <g transform="translate(14.000000, 0.000000)" id="Shape">
                    <path d="M30.1,10.9 L0.1,10.9"></path>
                    <polyline points="27.1 0.9 33.1 10.9 27.1 20.9"></polyline>
                </g>
                <g transform="translate(0.000000, 19.000000)" id="Shape">
                    <path d="M3.1,10.3 L33.1,10.3"></path>
                    <polyline points="6.1 0.3 0.1 10.3 6.1 20.3"></polyline>
                </g>
            </g>
            <g id="Group" transform="translate(28.000000, 20.000000)" stroke="#000000">
                <polyline id="Shape" points="33.6 18.5 55.2 31.7 48.6 56.5 39.6 64.4 38.1 70.1"></polyline>
                <path d="M40,24.3 L37.4,34" id="Shape"></path>
                <path d="M47.4,28.9 L44.8,38.5" id="Shape"></path>
                <path d="M30,29.5 L36.2,6.5 C36.9,3.8 35.3,1.1 32.7,0.4 L32.7,0.4 C30,-0.3 27.3,1.3 26.6,3.9 L19.6,30.1 C19,32.5 16.5,33.9 14.1,33.3 L13.8,33.2 L11.4,28.2 C10.1,25.5 6.8,24.3 4.1,25.6 L3.2,26 C0.5,27.3 -0.7,30.6 0.6,33.3 L11.9,56.9 L10.4,62.6" id="Shape"></path>
            </g>
        </g>
    </g>
</svg>